<svg class="w-auto h-8 xl:h-12 pointer-events-none" viewBox="0 0 138 47" xmlns="http://www.w3.org/2000/svg">
                        <path xmlns="http://www.w3.org/2000/svg" d="M0.733336 14.6313H10.19V45.8454H0.733336V14.6313ZM5.47335 0.398304C2.30001 0.398304 0 2.39666 0 5.23282C0 8.04617 2.30001 10.0673 5.47335 10.0673C8.6467 10.0673 10.9467 8.04617 10.9467 5.23282C10.9467 2.39666 8.6467 0.398304 5.47335 0.398304ZM37.2801 35.2896C35.4335 37.7477 33.9835 38.7224 31.6068 38.7224C28.8768 38.7224 27.6434 37.3173 27.6434 32.8251V14.6313H18.1867V34.0085C18.1867 41.8096 21.1467 46.5984 28.0868 46.5984C32.4401 46.5984 35.4435 44.6229 38.1068 41.5129H38.3401L39.0202 45.8421H46.7368V14.6313H37.2801V35.2896ZM57.1069 14.6248H56.2136V21.4805H57.1069V14.6248ZM60.0302 17.8945C60.0302 17.1773 59.9602 16.4471 59.9169 15.7527H59.9602L60.7169 17.1675L63.2536 21.4805H64.1736V14.6248H63.3269V18.1716C63.3269 18.8888 63.3936 19.6614 63.4402 20.3525H63.3969L62.6402 18.9312L60.1036 14.6215H59.1836V21.4772H60.0302V17.8945ZM67.7103 21.4837H68.6036V15.3648H70.7236V14.628H65.5903V15.3648H67.7103V21.4837V21.4837ZM73.0236 18.2498H75.6803V17.5131H73.0236V15.3648H76.1736V14.628H72.1303V21.4837H76.2803V20.7437H73.0236V18.2498V18.2498ZM80.987 18.4813L82.777 21.4805H81.7636L80.077 18.5824H78.8103V21.4805H77.917V14.6248H80.1136C81.5403 14.6248 82.567 15.1268 82.567 16.5547C82.567 17.6239 81.9403 18.2531 80.987 18.4813ZM81.677 16.5547C81.677 15.6549 81.077 15.3322 79.987 15.3322H78.8103V17.8749H79.987C81.077 17.8749 81.677 17.4446 81.677 16.5547ZM88.297 18.1749C88.297 18.8921 88.367 19.6647 88.4103 20.3558H88.367L87.6103 18.9344L85.0737 14.6248H84.1537V21.4805H85.0003V17.8945C85.0003 17.1773 84.9337 16.4471 84.887 15.7527H84.9303L85.687 17.1675L88.2237 21.4805H89.1437V14.6248H88.297V18.1749ZM93.6704 14.6248L96.0404 21.4805H95.097L94.4304 19.3908H91.8737L91.2004 21.4805H90.2937L92.667 14.6248H93.6704ZM93.8737 17.6533C93.6204 16.8872 93.397 16.1341 93.1704 15.342H93.127C92.9104 16.1374 92.6837 16.8872 92.4337 17.6533L92.097 18.6965H94.207L93.8737 17.6533ZM98.0604 21.4837H98.9537V15.3648H101.074V14.628H95.9404V15.3648H98.0604V21.4837V21.4837ZM103.377 14.6248H102.484V21.4805H103.377V14.6248ZM111.037 18.0282C111.037 20.2254 109.8 21.6076 108.04 21.6076C106.28 21.6076 105.044 20.2254 105.044 18.0282C105.044 15.831 106.28 14.5009 108.04 14.5009C109.804 14.5009 111.037 15.8375 111.037 18.0282ZM110.117 18.0282C110.117 16.3199 109.294 15.267 108.04 15.267C106.787 15.267 105.967 16.3199 105.967 18.0282C105.967 19.7364 106.79 20.8415 108.04 20.8415C109.29 20.8415 110.117 19.7364 110.117 18.0282ZM117.694 21.4837V14.6248H116.847V18.1716C116.847 18.8888 116.914 19.6614 116.96 20.3525H116.917L116.16 18.9312L113.624 14.6215H112.704V21.4772H113.55V17.8945C113.55 17.1773 113.48 16.4471 113.437 15.7527H113.48L114.237 17.1675L116.774 21.4805H117.694V21.4837ZM122.22 14.6248L124.59 21.4805H123.647L122.98 19.3908H120.424L119.75 21.4805H118.84L121.214 14.6248H122.22ZM122.424 17.6533C122.17 16.8872 121.947 16.1341 121.72 15.342H121.677C121.46 16.1374 121.237 16.8872 120.984 17.6533L120.647 18.6965H122.757L122.424 17.6533ZM126.587 14.6248H125.694V21.4805H129.647V20.7405H126.587V14.6248ZM131.937 20.7437V18.2498H134.594V17.5131H131.937V15.3648H135.087V14.628H131.047V21.4837H135.194V20.7437H131.937V20.7437ZM60.3669 29.6793H57.1069V26.8072H56.2136V33.6629H57.1069V30.4388H60.3669V33.6629H61.2569V26.8072H60.3669V29.6793ZM68.9203 30.2106C68.9203 32.4078 67.6836 33.7901 65.9236 33.7901C64.1636 33.7901 62.9269 32.4078 62.9269 30.2106C62.9269 28.0134 64.1636 26.6801 65.9236 26.6801C67.6869 26.6801 68.9203 28.0199 68.9203 30.2106ZM68.0003 30.2106C68.0003 28.5024 67.1769 27.4494 65.9236 27.4494C64.6703 27.4494 63.8502 28.5024 63.8502 30.2106C63.8502 31.9188 64.6736 33.0207 65.9236 33.0207C67.1769 33.0207 68.0003 31.9188 68.0003 30.2106ZM73.2703 33.0207C71.9403 33.0207 71.1003 31.9417 71.1003 30.2172C71.1003 28.5089 71.9803 27.4462 73.307 27.4462C73.897 27.4462 74.3603 27.707 74.7303 28.0917L75.2203 27.5244C74.8103 27.0843 74.1436 26.6801 73.2936 26.6801C71.5136 26.6801 70.1803 28.0297 70.1803 30.24C70.1803 32.4665 71.4903 33.7868 73.237 33.7868C74.147 33.7868 74.8336 33.4249 75.387 32.7958L74.897 32.2481C74.447 32.7371 73.9403 33.0207 73.2703 33.0207ZM80.9936 29.6793H77.7336V26.8072H76.8403V33.6629H77.7336V30.4388H80.9936V33.6629H81.887V26.8072H80.9936V29.6793ZM86.8503 30.0085L85.8503 29.5847C85.3003 29.3565 84.6903 29.112 84.6903 28.4503C84.6903 27.8374 85.2103 27.4494 85.997 27.4494C86.6437 27.4494 87.157 27.6972 87.587 28.0917L88.0603 27.5309C87.567 27.0322 86.827 26.6801 85.997 26.6801C84.7237 26.6801 83.7903 27.4527 83.7903 28.4992C83.7903 29.5065 84.557 29.9922 85.2103 30.2661L86.217 30.6996C86.8803 30.9832 87.387 31.2049 87.387 31.9058C87.387 32.5708 86.8437 33.0207 85.9203 33.0207C85.1903 33.0207 84.4903 32.6849 83.987 32.1699L83.4537 32.7697C84.067 33.3956 84.9203 33.7868 85.907 33.7868C87.3803 33.7868 88.297 32.9229 88.297 31.8374C88.2937 30.8202 87.6603 30.3475 86.8503 30.0085ZM92.507 33.0207C91.177 33.0207 90.337 31.9417 90.337 30.2172C90.337 28.5089 91.217 27.4462 92.5437 27.4462C93.137 27.4462 93.6004 27.707 93.967 28.0917L94.457 27.5244C94.047 27.0843 93.3804 26.6801 92.527 26.6801C90.747 26.6801 89.417 28.0297 89.417 30.24C89.417 32.4665 90.727 33.7868 92.4704 33.7868C93.3804 33.7868 94.067 33.4249 94.6204 32.7958L94.1304 32.2481C93.6837 32.7371 93.177 33.0207 92.507 33.0207ZM100.234 29.6793H96.9737V26.8072H96.0804V33.6629H96.9737V30.4388H100.234V33.6629H101.124V26.8072H100.234V29.6793ZM107.354 30.8561C107.354 32.5024 106.62 33.0207 105.69 33.0207C104.774 33.0207 104.064 32.5024 104.064 30.8561V26.8072H103.17V30.8333C103.17 33.0338 104.26 33.7901 105.69 33.7901C107.12 33.7901 108.207 33.0338 108.207 30.8333V26.8072H107.35V30.8561H107.354ZM111.14 26.8072H110.247V33.6629H114.2V32.9229H111.14V26.8072ZM116.487 30.4323H119.144V29.6923H116.487V27.544H119.637V26.804H115.597V33.6597H119.744V32.9197H116.487V30.4323Z" fill="#1D1D1F"></path>
                    </svg>